<svg viewBox="0 0 32 32" xml:space="preserve" xmlns="http://www.w3.org/2000/svg" enable-background="new 0 0 32 32"><path d="M27 28h-8.1c-1.2 0-2.3-.5-3.2-1.3L3 14l7-8v0c0 3.9 4.1 8 8 8h1v0c-.1 4.5 1.6 7.8 6 9.2.3.1.5.2.8.2h0c1.2.3 2 1.6 1.7 2.8L27 28z" fill="none" stroke="#2f8f9d" stroke-width="2" stroke-linecap="round" stroke-linejoin="round" stroke-miterlimit="10" class="stroke-000000"></path><path d="m1 16 13.7 13.7c.8.8 2 1.3 3.2 1.3H27" fill="none" stroke="#2f8f9d" stroke-width="2" stroke-linecap="round" stroke-linejoin="round" stroke-miterlimit="10" class="stroke-000000"></path><circle cx="10.5" cy="15.5" r="1.5" fill="none" stroke="#2f8f9d" stroke-width="2" stroke-linecap="round" stroke-linejoin="round" stroke-miterlimit="10" class="stroke-000000"></circle><path d="M15 19h4.5M17 22h5.5M28 1l-7.3 7.3C19 10 18.4 12.4 19 14.7h0M10 7h0c1.9-.6 3.6-2 4.6-3.7L16 1" fill="none" stroke="#2f8f9d" stroke-width="2" stroke-linecap="round" stroke-linejoin="round" stroke-miterlimit="10" class="stroke-000000"></path></svg>